<mxfile host="app.diagrams.net" modified="2024-03-20T11:18:17.465Z" agent="Mozilla/5.0 (Windows NT 10.0; Win64; x64) AppleWebKit/537.36 (KHTML, like Gecko) Chrome/122.0.0.0 Safari/537.36" version="23.1.3" etag="ImrbRIGc47mTZdNzleNx" type="github">
  <diagram name="Page-1" id="Z0B3KhYC587zyVXzux5v">
    <mxGraphModel>
      <root>
        <mxCell id="0" />
        <mxCell id="1" parent="0" />
      </root>
    </mxGraphModel>
  </diagram>
</mxfile>
